<svg width="320" height="320" viewBox="0 0 320 320" fill="none" xmlns="http://www.w3.org/2000/svg">
<g clip-path="url(#clip0_229_1084)">
<path d="M225.383 92.535L257.2 68.1075L292.646 95.3207C294.298 96.5894 296.291 97.24 298.298 97.24C299.695 97.24 301.1 96.9244 302.4 96.2831C305.57 94.7206 307.576 91.4938 307.576 87.96V41.1406C307.576 38.2725 306.25 35.5644 303.982 33.8069L262.886 1.94627C259.54 -0.648106 254.861 -0.648106 251.514 1.94627L210.417 33.8069C208.15 35.5644 206.823 38.2725 206.823 41.1406V64.0732H38.437C34.2432 64.0732 30.572 66.885 29.4782 70.9332L12.7445 132.868C11.9907 135.656 12.5795 138.636 14.3351 140.93C16.092 143.224 18.8145 144.569 21.7032 144.569H36.8414V310.721C36.8414 315.846 40.9957 320.001 46.1214 320.001H298.296C303.422 320.001 307.576 315.846 307.576 310.721V183.2V178.857C307.576 173.731 303.422 169.577 298.296 169.577C293.171 169.577 289.016 173.731 289.016 178.857V183.2V301.44H266.479V178.56C266.479 173.435 262.325 169.28 257.199 169.28C252.073 169.28 247.919 173.434 247.919 178.56V301.44H225.381V135.288L225.383 92.535ZM225.383 45.6888L257.2 21.0225L289.018 45.6888V69.1357L262.852 49.0475C261.185 47.7688 259.193 47.1282 257.201 47.1282C255.208 47.1282 253.216 47.7675 251.55 49.0475L225.384 69.1357V67.8244V45.6888H225.383ZM45.542 82.6332H206.823V87.96V126.008H33.8232L45.542 82.6332ZM55.402 301.44V206.399H91.1939V301.44H55.402ZM109.754 301.44V197.12C109.754 191.995 105.599 187.84 100.474 187.84H55.402V144.568H206.823V187.84H152.443C147.318 187.84 143.163 191.994 143.163 197.12V260.224C143.163 265.349 147.318 269.504 152.443 269.504H206.823V301.441H109.754V301.44ZM206.267 206.399V250.943H161.723V206.399H206.267Z" fill="#59735B"/>
</g>
<defs>
<clipPath id="clip0_229_1084">
<rect width="320" height="320" fill="white"/>
</clipPath>
</defs>
</svg>
