<svg width="342" height="274" viewBox="0 0 342 274" fill="none" xmlns="http://www.w3.org/2000/svg">
<path d="M278.413 50.8163C278.413 48.2559 278.16 45.6955 277.646 43.1841L290.416 35.8454L278.462 15.134L265.733 22.4727C261.835 18.9746 257.261 16.3245 252.295 14.6774V0H228.379V14.6774C226.169 15.4112 224.025 16.3408 221.978 17.4661L221.261 17.8819C221.024 18.0206 220.78 18.151 220.543 18.2978C218.545 19.5046 216.662 20.8908 214.925 22.4482L202.221 15.1095L190.259 35.8209L202.963 43.1596C202.482 45.4428 202.205 47.7667 202.147 50.0988C202.147 50.3842 202.147 50.6614 202.147 50.9142C202.147 51.1669 202.147 51.4605 202.147 51.7296C202.205 54.0617 202.482 56.3937 202.963 58.6769L190.259 66.0156L202.221 86.727L214.925 79.3883C218.831 82.8619 223.413 85.5038 228.379 87.1265V101.804H252.295V87.102C257.237 85.4549 261.787 82.813 265.676 79.3393L278.486 86.7351L290.416 66.0482L277.605 58.6279C278.144 56.0594 278.413 53.4419 278.413 50.8163ZM255.997 67.679L255.687 67.9644C255.271 68.3395 254.872 68.6901 254.415 69.0326L253.796 69.4974C253.437 69.7583 253.07 70.0029 252.703 70.2394C252.336 70.4758 252.108 70.6063 251.806 70.7857C251.504 70.9651 251.194 71.1282 250.876 71.2913C250.558 71.4543 250.061 71.6826 249.686 71.862C249.458 71.968 249.221 72.0741 248.976 72.1719C248.471 72.3758 247.949 72.5714 247.419 72.7427L247.019 72.865C242.845 74.1289 238.401 74.186 234.193 73.0281C229.994 71.8702 226.202 69.5381 223.275 66.3091C220.347 63.0801 218.39 59.0846 217.64 54.7874C216.89 50.4902 217.379 46.0706 219.043 42.0425C219.1 41.9202 219.149 41.7897 219.206 41.6674C219.418 41.1863 219.646 40.7216 219.883 40.2649C220.038 39.9795 220.192 39.686 220.356 39.4006C220.519 39.1152 220.69 38.838 220.861 38.5852C221.147 38.153 221.432 37.7208 221.742 37.305L221.986 36.9707C224.294 33.97 227.303 31.589 230.76 30.0315C234.218 28.4741 237.993 27.7892 241.768 28.0419C245.544 28.2947 249.205 29.4689 252.417 31.4667C255.63 33.4644 258.305 36.2286 260.196 39.5066C261.322 41.4636 262.145 43.5836 262.643 45.7852C262.643 45.9239 262.708 46.0543 262.732 46.193C262.855 46.7393 262.944 47.2856 263.018 47.8238C263.059 48.0765 263.083 48.3375 263.107 48.5903C263.156 49.0306 263.189 49.4709 263.214 49.9112C263.238 50.3515 263.214 50.6125 263.214 50.9631C263.214 51.3137 263.214 51.6643 263.214 52.015C263.214 52.3656 263.156 52.8875 263.107 53.3278C263.107 53.5887 263.059 53.8415 263.018 54.1432C262.944 54.6895 262.855 55.2277 262.732 55.774C262.732 55.9126 262.675 56.0513 262.643 56.1899C261.615 60.5768 259.3 64.5804 255.997 67.679Z" fill="#082C4C" fill-opacity="0.2"/>
<path d="M335.232 123.648C335.232 122.205 335.086 120.762 334.8 119.343L342 115.192L335.257 103.557L328.081 107.699C325.888 105.734 323.303 104.233 320.506 103.312V95.0029H307.027V103.271C305.772 103.679 304.565 104.209 303.415 104.845L303.007 105.073L302.608 105.31C301.483 105.986 300.423 106.769 299.436 107.634L292.277 103.557L285.533 115.233L292.692 119.367C292.423 120.656 292.277 121.969 292.252 123.281V124.211C292.277 125.524 292.423 126.837 292.692 128.125L285.533 132.259L292.277 143.936L299.436 139.802C301.638 141.759 304.222 143.251 307.027 144.164V152.457H320.506V144.14C321.876 143.683 323.205 143.088 324.453 142.362C325.733 141.628 326.932 140.756 328.032 139.769L335.257 143.936L342 132.259L334.776 128.019C335.077 126.584 335.224 125.116 335.232 123.648ZM322.594 133.148L322.414 133.311C322.186 133.523 321.941 133.719 321.697 133.914L321.346 134.175C321.15 134.322 320.946 134.461 320.734 134.591L320.229 134.901C320.058 134.999 319.886 135.097 319.707 135.186C319.528 135.276 319.267 135.406 319.038 135.504C318.908 135.57 318.777 135.627 318.639 135.676C318.345 135.798 318.052 135.904 317.758 136.002L317.53 136.075C315.589 136.662 313.543 136.785 311.545 136.434C309.547 136.083 307.663 135.276 306.033 134.069C304.402 132.862 303.081 131.289 302.176 129.478C301.262 127.668 300.79 125.67 300.79 123.64C300.79 121.936 301.124 120.256 301.776 118.682C301.776 118.609 301.833 118.544 301.866 118.47C301.98 118.201 302.11 117.94 302.249 117.655C302.388 117.37 302.42 117.329 302.51 117.174C302.6 117.019 302.698 116.856 302.804 116.701C302.91 116.546 303.122 116.212 303.293 115.975L303.431 115.788C304.932 113.839 306.954 112.355 309.262 111.507C311.569 110.659 314.073 110.488 316.478 111.009C318.883 111.531 321.085 112.722 322.838 114.45C324.591 116.171 325.814 118.364 326.377 120.762L326.426 120.99C326.491 121.3 326.54 121.602 326.589 121.911L326.638 122.344C326.638 122.596 326.679 122.841 326.695 123.086C326.711 123.33 326.695 123.485 326.695 123.681C326.695 123.877 326.695 124.08 326.695 124.276C326.695 124.472 326.695 124.765 326.638 125.018L326.589 125.45C326.54 125.76 326.491 126.062 326.426 126.372L326.377 126.608C325.79 129.103 324.485 131.378 322.61 133.131V133.148H322.594Z" fill="#082C4C" fill-opacity="0.2"/>
<path d="M73.0284 203.64C72.2945 201.764 71.3894 199.97 70.3049 198.274L77.5539 189.305L62.9418 177.514L55.7172 186.484C51.8767 185.032 47.7833 184.388 43.6818 184.592L39.5314 173.869L22.0408 180.637L26.1994 191.368C24.7806 192.534 23.4759 193.822 22.3018 195.225C22.1631 195.388 22.0327 195.559 21.894 195.73L21.4863 196.236C20.3692 197.687 19.3907 199.228 18.559 200.859L7.19221 199.106L4.30566 217.632L15.6725 219.402C15.9742 221.204 16.4471 222.981 17.0668 224.702C17.1402 224.906 17.2299 225.109 17.3033 225.313C17.3767 225.517 17.4582 225.713 17.5398 225.909C18.2329 227.613 19.0809 229.252 20.0757 230.801L12.9001 239.73L27.5041 251.488L34.7204 242.518C38.561 243.954 42.6625 244.581 46.7559 244.369L50.9145 255.117L68.3479 248.349L64.173 237.569C65.7223 236.281 67.133 234.854 68.3969 233.288C69.6852 231.682 70.8105 229.953 71.7482 228.118L83.1639 229.896L86.0423 211.362L74.6266 209.584C74.3004 207.554 73.7622 205.564 73.0284 203.64ZM61.4088 222.313C61.3599 222.419 61.3109 222.516 61.2539 222.614C61.0582 222.998 60.8462 223.381 60.626 223.748L60.308 224.27C60.1204 224.555 59.9166 224.84 59.7209 225.085C59.5252 225.33 59.3866 225.525 59.2153 225.737C59.0441 225.949 58.8647 226.161 58.6853 226.373C58.5059 226.585 58.2205 226.879 57.9759 227.124L57.5438 227.556C57.2257 227.849 56.8996 228.135 56.5653 228.412L56.3043 228.616C54.91 229.717 53.3607 230.597 51.7054 231.233C48.9412 232.31 45.9486 232.685 42.9968 232.326C40.0532 231.967 37.2401 230.891 34.802 229.187C32.3721 227.482 30.3988 225.207 29.0533 222.557C27.7161 219.907 27.0474 216.972 27.1127 214.004C27.1127 213.889 27.1127 213.783 27.1127 213.677C27.1127 213.27 27.1616 212.862 27.2105 212.462C27.2105 212.21 27.2676 211.949 27.3084 211.696C27.3491 211.443 27.3981 211.19 27.447 210.938C27.5204 210.538 27.6101 210.122 27.7161 209.755C27.7161 209.649 27.7813 209.543 27.8058 209.437C28.4826 207.17 29.5834 205.05 31.0674 203.208C32.8368 201.014 35.0955 199.261 37.6641 198.095C40.2326 196.929 43.0376 196.383 45.8589 196.489C48.6803 196.603 51.4282 197.369 53.8989 198.739C56.3696 200.109 58.4815 202.033 60.0715 204.357L60.2509 204.635C60.4874 204.993 60.7075 205.368 60.9195 205.752C61.0174 205.923 61.1152 206.102 61.2049 206.282C61.368 206.592 61.5148 206.901 61.6534 207.219C61.792 207.537 61.8654 207.725 61.9633 207.978C62.0611 208.23 62.159 208.5 62.2487 208.793C62.3384 209.087 62.4607 209.445 62.5504 209.78L62.6971 210.367C62.795 210.791 62.8847 211.182 62.9499 211.647C62.9499 211.753 62.9499 211.867 63.007 211.973C63.4881 215.504 62.9255 219.108 61.3762 222.321H61.4088V222.313Z" fill="#082B4A" fill-opacity="0.2"/>
<path d="M200.99 244.737H128.427L140.903 208.753H188.515L200.99 244.737Z" fill="url(#paint0_linear_1112_2045)"/>
<path d="M60.9194 75.7925H268.498C271.809 75.7925 274.981 77.1053 277.321 79.4455C279.661 81.7857 280.974 84.9577 280.974 88.2683V209.666H48.4436V88.2683C48.4436 84.9577 49.7564 81.7857 52.0966 79.4455C54.4369 77.1053 57.6088 75.7925 60.9194 75.7925Z" fill="#082C4C"/>
<path d="M272.029 88.3903H57.7883V196.815H272.029V88.3903Z" fill="url(#paint1_linear_1112_2045)"/>
<path d="M219.899 244.737H109.526C109.526 243.856 109.697 242.984 110.031 242.169C110.366 241.353 110.863 240.611 111.483 239.991C112.102 239.372 112.844 238.874 113.66 238.54C114.475 238.206 115.348 238.026 116.228 238.026H213.189C214.069 238.026 214.942 238.197 215.757 238.54C216.573 238.874 217.315 239.372 217.934 239.991C218.554 240.619 219.051 241.353 219.394 242.169C219.728 242.984 219.899 243.856 219.899 244.737Z" fill="url(#paint2_linear_1112_2045)"/>
<path d="M294.543 161.182H243.775C239.772 161.182 236.526 164.427 236.526 168.431V265.945C236.526 269.949 239.772 273.194 243.775 273.194H294.543C298.546 273.194 301.792 269.949 301.792 265.945V168.431C301.792 164.427 298.546 161.182 294.543 161.182Z" fill="#082C4C"/>
<path d="M301.792 168.977H236.526V264.934H301.792V168.977Z" fill="url(#paint3_linear_1112_2045)" fill-opacity="0.5"/>
<path d="M285.409 193.684H252.915C248.911 193.684 245.666 196.929 245.666 200.933V233.427C245.666 237.431 248.911 240.676 252.915 240.676H285.409C289.413 240.676 292.658 237.431 292.658 233.427V200.933C292.658 196.929 289.413 193.684 285.409 193.684Z" fill="#136BB9" fill-opacity="0.8"/>
<path d="M269.159 235.172C265.603 235.172 262.122 234.12 259.162 232.139C256.202 230.166 253.894 227.353 252.541 224.066C251.179 220.78 250.82 217.16 251.513 213.67C252.206 210.18 253.919 206.975 256.438 204.464C258.958 201.944 262.162 200.232 265.652 199.539C269.142 198.846 272.755 199.205 276.049 200.558C279.335 201.92 282.148 204.228 284.121 207.179C286.095 210.131 287.155 213.613 287.155 217.176C287.155 221.946 285.255 226.521 281.879 229.888C278.503 233.272 273.929 235.164 269.159 235.172ZM269.159 202.556C266.256 202.556 263.418 203.42 261.005 205.027C258.591 206.641 256.707 208.932 255.598 211.615C254.489 214.298 254.196 217.25 254.767 220.095C255.329 222.941 256.732 225.559 258.787 227.613C260.842 229.668 263.459 231.063 266.305 231.633C269.151 232.204 272.102 231.911 274.785 230.802C277.468 229.693 279.759 227.809 281.374 225.396C282.988 222.982 283.844 220.144 283.844 217.241C283.852 215.309 283.469 213.401 282.735 211.615C282.001 209.829 280.917 208.207 279.555 206.845C278.193 205.475 276.571 204.391 274.793 203.657C273.007 202.915 271.099 202.54 269.167 202.54V202.556H269.159Z" fill="white"/>
<path d="M267.862 224.025L261.567 218.488L264.209 215.496L267.487 218.382L273.75 211.231L276.75 213.849L267.862 224.025Z" fill="white"/>
<path d="M277.336 172.785H260.979C259.764 172.785 258.607 172.304 257.75 171.448C256.894 170.592 256.413 169.434 256.413 168.219H281.903C281.903 169.434 281.422 170.592 280.566 171.448C279.709 172.304 278.551 172.785 277.336 172.785Z" fill="#082C4C"/>
<path opacity="0.15" d="M275.063 168.977H263.231C263.133 168.977 263.035 168.961 262.937 168.92C262.848 168.879 262.766 168.83 262.693 168.757C262.619 168.684 262.571 168.602 262.53 168.512C262.489 168.423 262.473 168.325 262.473 168.219C262.473 168.015 262.554 167.827 262.693 167.681C262.831 167.534 263.027 167.461 263.231 167.461H275.038C275.242 167.461 275.43 167.542 275.576 167.681C275.715 167.819 275.796 168.015 275.796 168.219C275.796 168.415 275.723 168.61 275.584 168.749C275.446 168.887 275.258 168.977 275.063 168.977Z" fill="white"/>
<path d="M221.236 64.4497H92.915C88.9113 64.4497 85.666 67.695 85.666 71.6987V149.285C85.666 153.289 88.9113 156.534 92.915 156.534H221.236C225.24 156.534 228.485 153.289 228.485 149.285V71.6987C228.485 67.695 225.24 64.4497 221.236 64.4497Z" fill="#136BB9" fill-opacity="0.8"/>
<path d="M221.237 71.6987H92.916V149.285H221.237V71.6987Z" fill="#082C4C"/>
<path d="M119.947 82.0627H106.599V83.8648H119.947V82.0627Z" fill="#FFC809"/>
<path d="M151.486 82.0625H124.17V83.8646H151.486V82.0625Z" fill="#FFC809"/>
<path d="M125.614 89.3688H112.266V91.1709H125.614V89.3688Z" fill="white"/>
<path d="M207.889 89.3688H129.838V91.1709H207.889V89.3688Z" fill="#136BB9"/>
<path d="M125.614 96.1527H112.266V97.9548H125.614V96.1527Z" fill="white"/>
<path d="M207.889 96.1527H129.838V97.9548H207.889V96.1527Z" fill="#136BB9"/>
<path d="M125.614 102.938H112.266V104.74H125.614V102.938Z" fill="white"/>
<path d="M207.889 102.938H129.838V104.74H207.889V102.938Z" fill="#136BB9"/>
<path d="M125.614 109.713H112.266V111.515H125.614V109.713Z" fill="white"/>
<path d="M119.947 116.889H106.599V118.691H119.947V116.889Z" fill="#FFC809"/>
<path d="M151.486 116.889H124.17V118.691H151.486V116.889Z" fill="#FFC809"/>
<path d="M180.165 124.195H129.838V125.997H180.165V124.195Z" fill="white"/>
<path d="M180.165 130.979H129.838V132.781H180.165V130.979Z" fill="white"/>
<path d="M125.606 130.979H121.179V132.781H125.606V130.979Z" fill="#136BB9"/>
<path d="M125.614 137.764H112.266V139.566H125.614V137.764Z" fill="#136BB9"/>
<path d="M180.165 137.764H129.838V139.566H180.165V137.764Z" fill="white"/>
<path d="M208.459 124.195H183.793V125.997H208.459V124.195Z" fill="white"/>
<path d="M208.459 130.979H183.793V132.781H208.459V130.979Z" fill="white"/>
<path d="M208.459 137.764H183.793V139.566H208.459V137.764Z" fill="white"/>
<path d="M207.889 109.713H129.838V111.515H207.889V109.713Z" fill="#136BB9"/>
<path d="M62.3792 100.686H21.0298C17.0261 100.686 13.7808 103.932 13.7808 107.935V149.285C13.7808 153.289 17.0261 156.534 21.0298 156.534H62.3792C66.3828 156.534 69.6282 153.289 69.6282 149.285V107.935C69.6282 103.932 66.3828 100.686 62.3792 100.686Z" fill="#136BB9" fill-opacity="0.8"/>
<path d="M54.5757 128.582C54.5757 127.71 54.486 126.845 54.3148 125.997L58.6283 123.51L54.5513 116.506L50.2459 118.993C48.9249 117.81 47.3838 116.914 45.7041 116.359V111.401H37.6641V116.359C36.914 116.612 36.1882 116.93 35.4951 117.305L35.2587 117.444L35.0141 117.582C34.3373 117.99 33.7012 118.463 33.1141 118.985L28.8251 116.538L24.748 123.543L29.0453 125.989C28.8822 126.756 28.7925 127.538 28.7762 128.329V128.892C28.7925 129.683 28.8822 130.466 29.0453 131.24L24.748 133.687L28.8251 140.683L33.1141 138.236C34.4351 139.411 35.9844 140.308 37.6641 140.854V145.82H45.7448V140.838C46.5684 140.56 47.3594 140.21 48.1095 139.778C48.876 139.329 49.6017 138.807 50.2622 138.22L54.592 140.715L58.6691 133.719L54.3393 131.216C54.5105 130.351 54.592 129.463 54.5757 128.582ZM47.0006 134.29L46.8946 134.388L46.4624 134.747L46.2504 134.901L45.8835 135.154L45.5818 135.342L45.2719 135.513L44.8642 135.701L44.6277 135.807C44.4483 135.88 44.2771 135.945 44.0977 136.002H43.9591C43.2334 136.231 42.4751 136.337 41.7086 136.337C40.4284 136.337 39.1645 136.019 38.0392 135.423C36.9058 134.82 35.9436 133.947 35.2342 132.887C34.5248 131.819 34.0845 130.596 33.954 129.324C33.8317 128.052 34.0193 126.764 34.5085 125.581C34.533 125.541 34.5493 125.5 34.5656 125.451C34.639 125.296 34.7123 125.133 34.7939 124.978C34.8428 124.88 34.8999 124.782 34.957 124.693C35.0059 124.595 35.063 124.497 35.1282 124.407C35.2179 124.26 35.3158 124.114 35.4218 123.975L35.5033 123.861C36.2779 122.842 37.2972 122.034 38.4632 121.504C39.6293 120.974 40.9013 120.738 42.1815 120.819C43.4617 120.901 44.693 121.292 45.7856 121.969C46.8701 122.646 47.7834 123.575 48.4194 124.676C48.7945 125.337 49.0717 126.054 49.2348 126.796C49.2348 126.845 49.2348 126.886 49.2348 126.935C49.2756 127.114 49.3082 127.302 49.3326 127.489C49.3571 127.677 49.3326 127.661 49.3326 127.75C49.3326 127.84 49.3326 128.044 49.3326 128.191C49.3326 128.337 49.3326 128.427 49.3326 128.549C49.3326 128.672 49.3326 128.786 49.3326 128.9C49.3326 129.014 49.3326 129.202 49.3326 129.349C49.3326 129.495 49.3326 129.52 49.3326 129.609C49.3326 129.699 49.2756 129.976 49.2348 130.164C49.2348 130.213 49.2348 130.254 49.2348 130.303C49.0717 131.045 48.7945 131.762 48.4194 132.423C48.0361 133.108 47.5632 133.735 47.0006 134.282V134.29Z" fill="white"/>
<path d="M126.87 169.254H71.031C67.0273 169.254 63.782 172.5 63.782 176.503V210.604C63.782 214.607 67.0273 217.853 71.031 217.853H126.87C130.874 217.853 134.119 214.607 134.119 210.604V176.503C134.119 172.5 130.874 169.254 126.87 169.254Z" fill="#136BB9" fill-opacity="0.8"/>
<path d="M88.7819 182.089L75.5479 193.554L88.7819 205.01V198.805L82.7153 193.554L88.7819 188.302V182.089Z" fill="white"/>
<path d="M109.126 205.01L122.368 193.554L109.126 182.089V188.302L115.192 193.554L109.126 198.805V205.01Z" fill="white"/>
<path d="M97.6774 208.752H92.0674L100.238 178.354H105.84L97.6774 208.752Z" fill="white"/>
<path d="M314.959 35.6333H251.871C247.867 35.6333 244.622 38.8786 244.622 42.8823V105.971C244.622 109.974 247.867 113.22 251.871 113.22H314.959C318.963 113.22 322.208 109.974 322.208 105.971V42.8823C322.208 38.8786 318.963 35.6333 314.959 35.6333Z" fill="#136BB9" fill-opacity="0.8"/>
<path d="M302.638 60.12C301.089 60.1282 299.564 60.4869 298.17 61.1556C297.249 57.8695 295.292 54.9748 292.584 52.9036C289.877 50.8325 286.575 49.6909 283.158 49.6501C279.75 49.6175 276.415 50.6857 273.667 52.6998C270.919 54.7138 268.897 57.5678 267.91 60.8376C266.728 60.3891 265.464 60.1608 264.2 60.1608C261.42 60.1608 258.753 61.2616 256.788 63.2186C254.815 65.1755 253.706 67.8419 253.689 70.6225H313.149C313.149 67.8338 312.04 65.1674 310.067 63.1941C308.094 61.229 305.427 60.12 302.638 60.12Z" fill="white"/>
<path d="M272.485 88.317L283.42 99.2517L294.355 88.317H286.983V75.4172H279.848V88.317H272.485Z" fill="white"/>
<path d="M62.3792 32.1269H21.0298C17.0261 32.1269 13.7808 35.3722 13.7808 39.3759V80.7253C13.7808 84.729 17.0261 87.9743 21.0298 87.9743H62.3792C66.3828 87.9743 69.6282 84.729 69.6282 80.7253V39.3759C69.6282 35.3722 66.3828 32.1269 62.3792 32.1269Z" fill="#136BB9" fill-opacity="0.8"/>
<path d="M63.0308 38.7241H20.3767V81.3782H63.0308V38.7241Z" fill="#082C4C"/>
<path d="M31.5164 47.0244H27.5942V48.8265H31.5164V47.0244Z" fill="white"/>
<path d="M53.6371 47.0244H33.5698V48.8265H53.6371V47.0244Z" fill="#3D7AF5"/>
<path d="M33.6935 53.0828H27.5942V54.8849H33.6935V53.0828Z" fill="white"/>
<path d="M55.8155 53.0828H35.7483V54.8849H55.8155V53.0828Z" fill="#3D7AF5"/>
<path d="M31.5164 64.4739H27.5942V66.276H31.5164V64.4739Z" fill="white"/>
<path d="M53.6371 64.4739H33.5698V66.276H53.6371V64.4739Z" fill="#3D7AF5"/>
<path d="M33.6935 70.5247H27.5942V72.3268H33.6935V70.5247Z" fill="white"/>
<path d="M55.8155 70.5247H35.7483V72.3268H55.8155V70.5247Z" fill="#3D7AF5"/>
<path d="M30.0729 59.1413H23.9736V60.9434H30.0729V59.1413Z" fill="white"/>
<path d="M59.4351 59.1413H32.1189V60.9434H59.4351V59.1413Z" fill="#3D7AF5"/>
<path d="M182.587 167.73H166.23V184.087H182.587V167.73Z" fill="#ACC5E7"/>
<path d="M206.347 167.73H189.99V184.087H206.347V167.73Z" fill="#ACC5E7"/>
<path d="M230.117 167.729H213.76V184.087H230.117V167.729Z" fill="#ACC5E7"/>
<path d="M262.692 123.298H238.025V125.1H262.692V123.298Z" fill="#ACC5E7"/>
<path d="M262.692 130.074H238.025V131.876H262.692V130.074Z" fill="#ACC5E7"/>
<path d="M262.692 136.858H238.025V138.66H262.692V136.858Z" fill="#ACC5E7"/>
<defs>
<linearGradient id="paint0_linear_1112_2045" x1="164.709" y1="208.753" x2="164.709" y2="244.737" gradientUnits="userSpaceOnUse">
<stop stop-color="#082C4C"/>
<stop offset="1" stop-color="#136BB9" stop-opacity="0"/>
<stop offset="1" stop-color="#136BB9"/>
</linearGradient>
<linearGradient id="paint1_linear_1112_2045" x1="84.243" y1="61.9363" x2="245.576" y2="223.269" gradientUnits="userSpaceOnUse">
<stop stop-color="#082B4A"/>
<stop offset="1" stop-color="#136BB9"/>
</linearGradient>
<linearGradient id="paint2_linear_1112_2045" x1="136.422" y1="215.056" x2="193.002" y2="271.636" gradientUnits="userSpaceOnUse">
<stop stop-color="#136BB9" stop-opacity="0.5"/>
<stop offset="1" stop-color="#082C4C"/>
</linearGradient>
<linearGradient id="paint3_linear_1112_2045" x1="228.854" y1="176.65" x2="309.466" y2="257.261" gradientUnits="userSpaceOnUse">
<stop stop-color="#082C4C"/>
<stop offset="1" stop-color="#136BB9"/>
</linearGradient>
</defs>
</svg>
